<?xml version="1.0"?>
<svg xmlns="http://www.w3.org/2000/svg" width="258" height="232" viewBox="0 0 258 232" fill="none">
<g clip-path="url(#clip0_4302_5815)">
<path d="M42.3692 200.857L22.9782 231.568H71.0382C71.1309 231.475 88.0169 180.817 83.8418 167.086C79.5739 152.983 65.1003 108.542 65.0075 108.078C64.8219 107.614 64.358 107.243 63.8013 107.335C63.4302 107.428 55.6367 109.098 55.08 115.686C54.7089 120.603 54.8945 137.86 54.9873 144.076C50.6266 140.365 39.3075 129.788 34.2046 118.562C33.9262 118.005 33.3696 117.819 32.8129 118.005C32.5345 118.098 32.349 118.376 32.2562 118.655C32.1634 118.562 31.9779 118.562 31.8851 118.562H31.7923C32.7201 117.077 33.8335 115.407 34.9468 113.644C37.4519 109.84 38.3797 106.315 37.5447 103.16C36.5241 98.9852 32.9057 96.944 32.8129 96.8513H32.7201C32.8129 96.7585 32.9057 96.5729 33.0912 96.4801C39.5858 88.6866 31.8851 77.3675 31.514 76.9036C31.3284 76.6253 31.0501 76.4397 30.6789 76.4397C30.3078 76.4397 30.0295 76.6253 29.8439 76.8108L22.4215 86.7383C22.236 83.9549 21.2154 73.7491 19.1743 70.5946C16.8548 66.9762 9.3396 64.2856 8.96848 64.1C8.69014 64.0072 8.31902 64.0072 8.04068 64.1928C7.76234 64.3783 7.57678 64.7495 7.57678 65.0278L7.484 106.222C7.484 106.315 7.484 106.408 7.57678 106.593L2.75223 113.088C2.56667 113.273 2.47389 113.552 2.56667 113.83C2.56667 113.83 8.22624 159.663 8.31902 159.849L42.3692 200.857Z" fill="#C157DE"/>
<path d="M1.91726 113.832C1.7317 113.832 1.54614 113.739 1.36058 113.646C0.989463 113.368 0.896683 112.718 1.17502 112.347L21.3082 85.4412C21.5866 85.07 22.236 84.9772 22.6072 85.2556C22.9783 85.5339 23.0711 86.1834 22.7927 86.5545L2.6595 113.461C2.47394 113.739 2.1956 113.832 1.91726 113.832Z" fill="#080717"/>
<path d="M4.51492 132.566C4.32936 132.566 4.1438 132.473 3.95824 132.38C3.58712 132.102 3.49434 131.453 3.77268 131.081C8.69001 124.494 25.2048 102.412 30.586 96.1962C30.9572 95.8251 31.5138 95.7323 31.885 96.1034C32.2561 96.4746 32.3489 97.0312 31.9777 97.4024C26.5965 103.526 10.1745 125.607 5.25716 132.195C5.0716 132.38 4.79326 132.566 4.51492 132.566Z" fill="#080717"/>
<path d="M51.8328 170.982C51.5545 170.982 51.2761 170.889 51.0906 170.611C42.2765 158.457 28.0812 156.323 27.8956 156.323C27.5245 156.23 27.2461 156.045 27.1534 155.674L24.1844 144.726C24.0916 144.447 24.1844 144.076 24.37 143.891C24.4628 143.798 32.8129 134.52 34.8541 129.695C36.3386 126.262 33.7407 121.438 32.5346 119.397L13.7931 137.86C13.422 138.231 12.8653 138.231 12.4942 137.86C12.123 137.489 12.123 136.932 12.4942 136.561L31.9779 117.263C32.1635 117.077 32.4418 116.984 32.7202 116.984C32.9985 116.984 33.2768 117.17 33.3696 117.355C33.5552 117.634 38.7508 124.963 36.4313 130.345C34.483 134.891 27.6173 142.87 26.04 144.726L28.7306 154.56C31.6996 155.117 44.2248 158.086 52.575 169.498C52.8534 169.869 52.7606 170.518 52.3895 170.797C52.2039 170.889 52.0183 170.982 51.8328 170.982Z" fill="#080717"/>
<path d="M215.589 200.857L234.98 231.568H186.92C186.828 231.475 169.942 180.817 174.117 167.086C178.385 152.983 192.858 108.542 192.951 108.078C193.137 107.614 193.601 107.243 194.157 107.335C194.528 107.428 202.322 109.098 202.879 115.686C203.25 120.603 203.064 137.86 202.971 144.076C207.332 140.365 218.651 129.788 223.754 118.562C224.032 118.005 224.589 117.819 225.146 118.005C225.424 118.098 225.61 118.376 225.702 118.655C225.795 118.562 225.981 118.562 226.073 118.562H226.166C225.238 117.077 224.125 115.407 223.012 113.644C220.507 109.84 219.579 106.315 220.414 103.16C221.434 98.9852 225.053 96.944 225.146 96.8513H225.238C225.146 96.7585 225.053 96.5729 224.867 96.4801C218.373 88.6866 226.073 77.3675 226.445 76.9036C226.63 76.6253 226.908 76.4397 227.28 76.4397C227.651 76.4397 227.929 76.6253 228.115 76.8108L235.537 86.7383C235.723 83.9549 236.743 73.7491 238.784 70.5946C241.104 66.9762 248.619 64.2856 248.99 64.1C249.268 64.0072 249.64 64.0072 249.918 64.1928C250.196 64.3783 250.382 64.7495 250.382 65.0278L250.475 106.222C250.475 106.315 250.475 106.408 250.382 106.593L255.206 113.088C255.392 113.273 255.485 113.552 255.392 113.83C255.392 113.83 249.732 159.663 249.64 159.849L215.589 200.857Z" fill="#C157DE"/>
<path d="M256.041 113.832C255.763 113.832 255.485 113.739 255.299 113.461L235.166 86.5545C234.887 86.1834 234.98 85.5339 235.351 85.2556C235.722 84.9772 236.372 85.07 236.65 85.4412L256.783 112.347C257.062 112.718 256.969 113.368 256.598 113.646C256.412 113.832 256.227 113.832 256.041 113.832Z" fill="#080717"/>
<path d="M253.35 132.566C253.072 132.566 252.794 132.473 252.608 132.195C247.691 125.607 231.269 103.619 225.888 97.4024C225.516 97.0312 225.609 96.4746 225.98 96.1034C226.352 95.7323 226.908 95.8251 227.279 96.1962C232.753 102.412 249.175 124.494 254.093 131.081C254.371 131.453 254.278 132.102 253.907 132.38C253.814 132.473 253.629 132.566 253.35 132.566Z" fill="#080717"/>
<path d="M206.126 170.982C205.94 170.982 205.755 170.889 205.569 170.797C205.198 170.518 205.105 169.962 205.384 169.498C213.734 158.086 226.259 155.117 229.228 154.56L231.919 144.726C230.248 142.87 223.383 134.984 221.527 130.345C219.208 124.963 224.403 117.634 224.589 117.355C224.774 117.17 224.96 116.984 225.238 116.984C225.517 116.984 225.795 117.077 225.981 117.263L245.464 136.561C245.836 136.932 245.836 137.489 245.464 137.86C245.093 138.231 244.537 138.231 244.165 137.86L225.424 119.397C224.218 121.345 221.713 126.17 223.104 129.695C225.146 134.52 233.496 143.798 233.589 143.891C233.774 144.169 233.867 144.447 233.774 144.726L230.805 155.581C230.712 155.952 230.434 156.23 230.063 156.23C229.877 156.23 215.682 158.457 206.868 170.518C206.682 170.889 206.404 170.982 206.126 170.982Z" fill="#080717"/>
<path d="M138.025 217.367L131.066 212.357L122.531 211.893L127.541 204.934L128.005 196.398L134.963 201.409L143.499 201.872L138.489 208.831L138.025 217.367ZM126.149 210.223L131.809 210.501L136.448 213.841L136.726 208.181L140.066 203.542L134.407 203.264L129.768 199.924L129.489 205.584L126.149 210.223Z" fill="#282D33"/>
<path d="M125.407 175.523H114.366V177.379H125.407V175.523Z" fill="#282D33"/>
<path d="M120.768 170.891H118.913V181.931H120.768V170.891Z" fill="#282D33"/>
<path d="M112.789 136.094L88.2025 152.424L87.3675 129.878C87.0891 123.384 89.6869 117.075 94.4187 112.528L110.377 97.3125L112.789 136.094Z" fill="#080717"/>
<path d="M148.231 136.095L172.818 152.517L173.653 129.972C173.931 123.477 171.333 117.168 166.601 112.622L150.643 97.4062L148.231 136.095Z" fill="#080717"/>
<path d="M130.51 134.889C137.19 134.889 143.592 135.817 149.808 137.394C154.726 120.508 157.416 101.859 157.416 82.1902C157.416 43.9649 147.118 25.2234 130.51 0.265625C113.903 25.2234 103.604 43.9649 103.604 82.1902C103.604 101.859 106.387 120.508 111.212 137.394C117.428 135.817 123.923 134.889 130.51 134.889Z" fill="#B4E56E"/>
<path d="M134.5 103.25H126.613C125.871 103.25 125.314 103.807 125.314 104.549V152.423H135.799V104.549C135.799 103.899 135.149 103.25 134.5 103.25Z" fill="#080717"/>
<path d="M138.169 65.5742C142.408 61.335 142.408 54.4619 138.169 50.2227C133.93 45.9835 127.057 45.9835 122.818 50.2227C118.579 54.4619 118.579 61.335 122.818 65.5742C127.057 69.8134 133.93 69.8134 138.169 65.5742Z" fill="#080717"/>
<path d="M243.609 231.289H239.897C239.341 231.289 238.97 230.918 238.97 230.361C238.97 229.805 239.341 229.433 239.897 229.433H243.609C250.474 229.433 256.134 223.867 256.134 216.908C256.134 209.95 250.567 204.383 243.609 204.383H239.805C239.248 204.383 238.877 204.012 238.877 203.455C238.877 189.167 227.279 177.57 212.991 177.57C207.796 177.57 202.786 179.147 198.425 182.023C198.147 182.209 197.775 182.209 197.497 182.116C197.219 181.93 197.033 181.652 196.94 181.374C196.384 170.611 187.57 162.261 176.807 162.261C166.045 162.261 157.231 170.704 156.674 181.374C156.674 181.745 156.488 182.023 156.117 182.116C155.839 182.301 155.468 182.209 155.19 182.023C150.922 179.054 145.912 177.57 140.623 177.57C140.066 177.57 139.695 177.198 139.695 176.642C139.695 176.085 140.066 175.714 140.623 175.714C145.726 175.714 150.551 177.106 154.911 179.703C156.21 168.755 165.581 160.312 176.807 160.312C188.034 160.312 197.312 168.663 198.703 179.703C202.971 177.106 207.888 175.714 212.991 175.714C228.022 175.714 240.269 187.683 240.732 202.527H243.609C251.495 202.527 257.99 208.929 257.99 216.908C257.99 224.887 251.495 231.289 243.609 231.289Z" fill="#080717"/>
<path d="M71.1311 230.918H66.0282C55.3585 230.918 46.6372 222.197 46.6372 211.527C46.6372 200.858 55.3585 192.136 66.0282 192.136H70.3888C70.8527 171.632 87.7386 155.117 108.336 155.117C114.738 155.117 121.047 156.694 126.613 159.756C127.077 160.035 127.263 160.591 126.985 161.055C126.706 161.519 126.149 161.705 125.686 161.426C120.397 158.55 114.366 156.973 108.336 156.973C88.4809 156.973 72.2444 173.116 72.2444 193.064C72.2444 193.621 71.8733 193.992 71.3166 193.992H66.0282C56.3791 193.992 48.4928 201.878 48.4928 211.527C48.4928 221.176 56.3791 229.063 66.0282 229.063H71.1311C71.6877 229.063 72.0589 229.434 72.0589 229.99C72.0589 230.454 71.6877 230.918 71.1311 230.918Z" fill="#080717"/>
</g>
<defs>
<clipPath id="clip0_4302_5815">
<rect width="257" height="231.393" fill="white" transform="translate(0.989258 0.265625)"/>
</clipPath>
</defs>
</svg>
