<?xml version="1.0"?>
<svg xmlns="http://www.w3.org/2000/svg" width="258" height="185" viewBox="0 0 258 185" fill="none">
<g clip-path="url(#clip0_4302_5741)">
<path d="M14.0336 155.153L0.322266 141.441L89.3582 52.4056L106.585 69.5448L152.905 23.225L173.824 44.0557L207.926 9.95312L221.638 23.5766L173.824 71.3905L152.905 50.5598L106.585 96.8796L89.3582 79.7404L14.0336 155.153Z" fill="#C157DE"/>
<path d="M231.218 32.5381V0.984375H195.357L231.218 32.5381Z" fill="#C157DE"/>
<path d="M163.54 90.7271C140.512 90.7271 121.791 72.0059 121.791 48.9778C121.791 25.9498 140.512 7.14062 163.54 7.14062C186.568 7.14062 205.289 25.8619 205.289 48.8899C205.289 71.918 186.568 90.7271 163.54 90.7271ZM163.54 14.6994C144.643 14.6994 129.35 30.0808 129.35 48.8899C129.35 67.787 144.731 83.0804 163.54 83.0804C182.437 83.0804 197.731 67.6991 197.731 48.8899C197.731 30.0808 182.437 14.6994 163.54 14.6994Z" fill="#080717"/>
<path d="M193.257 70.6781L185.24 78.6953L219.733 113.188L227.75 105.171L193.257 70.6781Z" fill="#080717"/>
<path d="M235.085 100.13C234.382 99.6025 233.679 99.2509 232.888 98.9873C232.888 98.9873 232.888 98.8994 232.8 98.8994L227.79 94.3289C227.351 93.9773 226.911 93.7137 226.384 93.45L221.901 88.528L221.813 88.4401C221.462 88.1764 221.022 87.9127 220.671 87.7369C220.671 87.649 220.583 87.5611 220.495 87.4732L215.485 81.8481L215.397 81.7602C212.233 79.3871 207.751 79.7386 205.026 82.5512L199.313 88.4401C199.225 88.528 199.225 88.528 199.137 88.6159C196.588 86.9459 193.248 87.0338 190.787 88.9674C188.238 90.9011 187.359 94.241 188.414 97.2294L194.391 113.05L196.588 120.785C198.434 127.201 201.95 133.002 206.96 137.572L213.024 143.11L219.089 184.244C219.089 184.507 219.265 184.068 219.44 184.244C219.616 184.42 219.88 184.332 220.144 184.244H252.312C252.488 184.156 252.752 184.42 252.84 184.244C252.928 184.068 253.016 184.507 252.928 184.244L240.623 136.342L242.029 127.377C242.644 123.773 242.468 120.082 241.677 116.478L239.392 106.81C238.777 104.085 237.283 101.8 235.085 100.13Z" fill="white"/>
<path d="M200.279 105.931C198.785 105.931 197.379 105.491 196.148 104.788L194.83 103.997C194.566 103.821 194.391 103.47 194.391 103.118L195.533 95.7352C195.973 92.9226 197.291 90.4616 199.225 88.4401L204.938 82.5512C207.663 79.7386 212.145 79.3871 215.309 81.7602C215.397 81.7602 215.397 81.8481 215.397 81.8481L220.407 87.4732C220.759 87.8248 220.671 88.3522 220.319 88.7037C219.968 89.0553 219.44 88.9674 219.089 88.6159L214.167 82.9907C211.706 81.2328 208.278 81.4965 206.168 83.6059L200.455 89.4948C198.785 91.2526 197.643 93.45 197.291 95.8231L196.236 102.591L197.027 103.118C198.17 103.821 199.576 104.173 200.895 103.997L201.422 103.909C201.949 103.821 202.301 104.173 202.389 104.7C202.477 105.14 202.125 105.579 201.598 105.667L201.071 105.755C200.807 105.931 200.543 105.931 200.279 105.931Z" fill="#080717"/>
<path d="M206.696 112.696C205.202 112.696 203.795 112.257 202.565 111.554L201.246 110.763C200.983 110.587 200.807 110.235 200.807 109.884L201.949 102.501C202.389 99.6883 203.707 97.2272 205.641 95.2057L211.354 89.3168C214.079 86.5043 218.561 86.1527 221.725 88.5258L221.813 88.6137L226.384 93.5357C226.735 93.8873 226.735 94.4147 226.296 94.7662C225.944 95.1178 225.417 95.1178 225.065 94.6783L220.583 89.8442C218.122 87.9984 214.694 88.35 212.585 90.4595L206.872 96.3483C205.202 98.1062 204.059 100.304 203.707 102.677L202.653 109.444L203.444 109.972C204.586 110.675 205.993 111.026 207.311 110.851L207.838 110.763C208.366 110.675 208.717 111.026 208.805 111.554C208.893 111.993 208.541 112.433 208.014 112.521L207.487 112.609C207.223 112.609 206.959 112.696 206.696 112.696Z" fill="#080717"/>
<path d="M212.673 118.501C211.178 118.501 209.772 118.062 208.542 117.359L207.223 116.567C206.959 116.392 206.784 116.04 206.784 115.689L207.926 108.306C208.366 105.493 209.684 103.032 211.618 101.01L217.331 95.1215C220.056 92.3089 224.538 91.9574 227.702 94.3305L232.712 98.9009C233.064 99.2525 233.064 99.7799 232.8 100.131C232.449 100.483 231.921 100.483 231.57 100.219L226.648 95.6489C224.274 93.891 220.759 94.1547 218.649 96.352L212.936 102.241C211.266 103.999 210.124 106.196 209.772 108.569L208.717 115.337L209.508 115.864C210.651 116.567 212.057 116.919 213.376 116.743L213.903 116.655C214.43 116.568 214.782 116.919 214.87 117.446C214.958 117.886 214.606 118.325 214.079 118.413L213.551 118.501C213.288 118.501 212.936 118.501 212.673 118.501Z" fill="#080717"/>
<path d="M252.049 184.944C251.697 184.944 251.258 184.681 251.17 184.241L238.865 136.427C238.865 136.339 238.865 136.164 238.865 136.076L240.359 126.935C240.886 123.507 240.798 120.079 240.007 116.739L237.722 107.071C237.195 104.874 235.876 102.852 234.119 101.534C231.658 99.6879 228.23 99.9516 226.032 102.149L220.319 108.038C218.649 109.796 217.507 111.993 217.155 114.366L216.1 121.134L216.891 121.661C217.067 121.749 217.331 121.925 217.946 122.101C220.407 122.804 223.132 121.925 224.802 119.991L229.988 114.102C230.339 113.751 230.866 113.663 231.218 114.015C231.57 114.366 231.658 114.893 231.306 115.245L226.12 121.134C223.923 123.595 220.583 124.65 217.419 123.771C216.804 123.595 216.276 123.419 215.925 123.155L214.606 122.364C214.343 122.189 214.167 121.837 214.167 121.485L215.309 114.102C215.749 111.29 217.067 108.829 219.001 106.807L224.714 100.918C227.439 98.1058 231.921 97.7542 235.085 100.127C237.195 101.709 238.777 104.083 239.392 106.719L241.677 116.388C242.556 119.991 242.644 123.595 242.029 127.286L240.623 136.252L252.928 183.89C253.016 184.329 252.752 184.857 252.312 184.944C252.225 184.944 252.137 184.944 252.049 184.944Z" fill="#080717"/>
<path d="M223.571 149.262C223.308 149.262 223.132 149.174 222.956 148.998C222.692 148.735 215.661 141.703 216.364 131.068C216.364 130.629 216.804 130.189 217.331 130.277C217.858 130.277 218.21 130.716 218.122 131.244C217.507 141.088 224.099 147.768 224.187 147.856C224.538 148.207 224.538 148.735 224.187 149.086C224.011 149.174 223.835 149.262 223.571 149.262Z" fill="#080717"/>
<path d="M233.064 127.901C232.624 127.901 232.273 127.637 232.185 127.198C231.833 125.44 229.636 123.155 228.845 122.452C228.493 122.1 228.493 121.573 228.757 121.221C229.108 120.87 229.636 120.87 229.987 121.133C230.163 121.221 233.415 124.21 233.942 126.846C234.03 127.286 233.767 127.813 233.239 127.901C233.151 127.901 233.064 127.901 233.064 127.901Z" fill="#080717"/>
<path d="M219.792 184.943C219.352 184.943 219.001 184.592 218.913 184.152L212.848 142.93L206.784 137.393C201.862 132.911 198.258 127.11 196.412 120.606L194.215 112.871L188.238 97.0501C187.096 94.0617 188.062 90.7218 190.611 88.7881C193.16 86.8545 196.588 86.7666 199.225 88.6124L199.313 88.7003C199.752 88.9639 199.84 89.4913 199.489 89.9308C199.225 90.3702 198.697 90.4581 198.258 90.1065L198.17 90.0187C196.236 88.6124 193.6 88.7003 191.666 90.1944C189.732 91.6886 189.029 94.1496 189.908 96.4349L195.885 112.344L198.082 120.078C199.84 126.231 203.18 131.68 207.926 135.987L214.255 141.7C214.43 141.876 214.518 142.051 214.518 142.227L220.583 183.713C220.671 184.152 220.319 184.68 219.88 184.68C219.88 184.943 219.88 184.943 219.792 184.943Z" fill="#080717"/>
<path d="M59.1229 184.856H32.4033C31.876 184.856 31.5244 184.504 31.5244 183.977V167.629C31.5244 167.102 31.876 166.75 32.4033 166.75H59.1229C59.6503 166.75 60.0018 167.102 60.0018 167.629V183.977C60.0018 184.504 59.6503 184.856 59.1229 184.856ZM33.2823 183.098H58.244V168.508H33.2823V183.098Z" fill="black"/>
<path d="M97.8838 183.102H96.126V184.859H97.8838V183.102Z" fill="#080717"/>
<path d="M94.456 184.859H92.786V183.102H94.456V184.859ZM91.116 184.859H89.4461V183.102H91.116V184.859ZM87.7761 184.859H86.1061V183.102H87.7761V184.859ZM84.4361 184.859H82.7662V183.102H84.4361V184.859ZM81.0962 184.859H79.4262V183.102H81.0962V184.859ZM77.8441 184.859H76.1742V183.102H77.8441V184.859ZM74.5042 184.859H72.8342V183.102H74.5042V184.859Z" fill="#080717"/>
<path d="M71.1644 183.102H69.4065V184.859H71.1644V183.102Z" fill="#080717"/>
<path d="M71.1644 181.343H69.4065V179.585H71.1644V181.343ZM71.1644 177.74H69.4065V175.982H71.1644V177.74ZM71.1644 174.224H69.4065V172.466H71.1644V174.224ZM71.1644 170.62H69.4065V168.862H71.1644V170.62ZM71.1644 167.105H69.4065V165.347H71.1644V167.105ZM71.1644 163.501H69.4065V161.743H71.1644V163.501ZM71.1644 159.985H69.4065V158.227H71.1644V159.985ZM71.1644 156.382H69.4065V154.624H71.1644V156.382ZM71.1644 152.866H69.4065V151.108H71.1644V152.866ZM71.1644 149.262H69.4065V147.504H71.1644V149.262ZM71.1644 145.746H69.4065V143.989H71.1644V145.746ZM71.1644 142.143H69.4065V140.385H71.1644V142.143ZM71.1644 138.627H69.4065V136.869H71.1644V138.627ZM71.1644 135.023H69.4065V133.266H71.1644V135.023Z" fill="#080717"/>
<path d="M71.1644 129.75H69.4065V131.508H71.1644V129.75Z" fill="#080717"/>
<path d="M94.456 131.508H92.786V129.75H94.456V131.508ZM91.116 131.508H89.4461V129.75H91.116V131.508ZM87.7761 131.508H86.1061V129.75H87.7761V131.508ZM84.4361 131.508H82.7662V129.75H84.4361V131.508ZM81.0962 131.508H79.4262V129.75H81.0962V131.508ZM77.8441 131.508H76.1742V129.75H77.8441V131.508ZM74.5042 131.508H72.8342V129.75H74.5042V131.508Z" fill="#080717"/>
<path d="M97.8838 129.75H96.126V131.508H97.8838V129.75Z" fill="#080717"/>
<path d="M97.8838 181.343H96.126V179.585H97.8838V181.343ZM97.8838 177.74H96.126V175.982H97.8838V177.74ZM97.8838 174.224H96.126V172.466H97.8838V174.224ZM97.8838 170.62H96.126V168.862H97.8838V170.62ZM97.8838 167.105H96.126V165.347H97.8838V167.105ZM97.8838 163.501H96.126V161.743H97.8838V163.501ZM97.8838 159.985H96.126V158.227H97.8838V159.985ZM97.8838 156.382H96.126V154.624H97.8838V156.382ZM97.8838 152.866H96.126V151.108H97.8838V152.866ZM97.8838 149.262H96.126V147.504H97.8838V149.262ZM97.8838 145.746H96.126V143.989H97.8838V145.746ZM97.8838 142.143H96.126V140.385H97.8838V142.143ZM97.8838 138.627H96.126V136.869H97.8838V138.627ZM97.8838 135.023H96.126V133.266H97.8838V135.023Z" fill="#080717"/>
<path d="M134.799 105.93H108.079V184.067H134.799V105.93Z" fill="#B4E56E"/>
<path d="M152.729 183.102H150.971V184.859H152.729V183.102Z" fill="#080717"/>
<path d="M149.301 184.859H147.631V183.102H149.301V184.859ZM146.049 184.859H144.379V183.102H146.049V184.859ZM142.709 184.859H141.039V183.102H142.709V184.859ZM139.369 184.859H137.7V183.102H139.369V184.859ZM136.03 184.859H134.36V183.102H136.03V184.859ZM132.69 184.859H131.02V183.102H132.69V184.859ZM129.35 184.859H127.68V183.102H129.35V184.859Z" fill="#080717"/>
<path d="M126.01 183.102H124.252V184.859H126.01V183.102Z" fill="#080717"/>
<path d="M126.01 181.339H124.252V179.581H126.01V181.339ZM126.01 177.823H124.252V176.065H126.01V177.823ZM126.01 174.308H124.252V172.55H126.01V174.308ZM126.01 170.792H124.252V169.034H126.01V170.792ZM126.01 167.276H124.252V165.518H126.01V167.276ZM126.01 163.76H124.252V162.002H126.01V163.76ZM126.01 160.245H124.252V158.487H126.01V160.245ZM126.01 156.729H124.252V154.971H126.01V156.729ZM126.01 153.125H124.252V151.367H126.01V153.125ZM126.01 149.61H124.252V147.852H126.01V149.61ZM126.01 146.094H124.252V144.336H126.01V146.094Z" fill="#080717"/>
<path d="M126.01 140.82H124.252V142.578H126.01V140.82Z" fill="#080717"/>
<path d="M149.301 142.578H147.631V140.82H149.301V142.578ZM146.049 142.578H144.379V140.82H146.049V142.578ZM142.709 142.578H141.039V140.82H142.709V142.578ZM139.369 142.578H137.7V140.82H139.369V142.578ZM136.03 142.578H134.36V140.82H136.03V142.578ZM132.69 142.578H131.02V140.82H132.69V142.578ZM129.35 142.578H127.68V140.82H129.35V142.578Z" fill="#080717"/>
<path d="M152.729 140.82H150.971V142.578H152.729V140.82Z" fill="#080717"/>
<path d="M152.729 181.339H150.971V179.581H152.729V181.339ZM152.729 177.823H150.971V176.065H152.729V177.823ZM152.729 174.308H150.971V172.55H152.729V174.308ZM152.729 170.792H150.971V169.034H152.729V170.792ZM152.729 167.276H150.971V165.518H152.729V167.276ZM152.729 163.76H150.971V162.002H152.729V163.76ZM152.729 160.245H150.971V158.487H152.729V160.245ZM152.729 156.729H150.971V154.971H152.729V156.729ZM152.729 153.125H150.971V151.367H152.729V153.125ZM152.729 149.61H150.971V147.852H152.729V149.61ZM152.729 146.094H150.971V144.336H152.729V146.094Z" fill="#080717"/>
<path d="M171.714 184.858H143.237V112.961H171.714V184.858ZM144.995 183.1H169.956V114.719H144.995V183.1Z" fill="#080717"/>
<path d="M115.199 151.109H88.4792V183.981H115.199V151.109Z" fill="#080717"/>
<path d="M204.323 167.633H177.603V183.981H204.323V167.633Z" fill="#B4E56E"/>
<path d="M256.443 184.859H22.032C21.5046 184.859 21.1531 184.508 21.1531 183.98C21.1531 183.453 21.5046 183.102 22.032 183.102H256.443C256.971 183.102 257.322 183.453 257.322 183.98C257.322 184.508 256.971 184.859 256.443 184.859Z" fill="black"/>
</g>
<defs>
<clipPath id="clip0_4302_5741">
<rect width="257" height="183.961" fill="white" transform="translate(0.322266 0.984375)"/>
</clipPath>
</defs>
</svg>
