<?xml version="1.0"?>
<svg xmlns="http://www.w3.org/2000/svg" width="282" height="49" viewBox="0 0 282 49" fill="none">
<path d="M32.0891 9.80661C32.1227 9.53613 31.7607 9.4147 31.6245 9.65075L20.6154 28.719C20.5732 28.7922 20.5707 28.8817 20.6089 28.957L27.5439 42.6431C27.6554 42.8632 27.9845 42.8058 28.015 42.561L32.0891 9.80661Z" fill="#B4E56E"/>
<path d="M27.8045 11.318C28.022 11.1536 28.3081 11.4064 28.1718 11.6424L17.1627 30.7107C17.1205 30.7839 17.0442 30.8307 16.9599 30.8353L1.63985 31.6725C1.39348 31.6859 1.27862 31.3722 1.47544 31.2234L27.8045 11.318Z" fill="#C020ED"/>
<path d="M55.9964 34.7511C54.1973 34.7511 52.5433 34.3352 51.0344 33.5034C49.5449 32.6716 48.3552 31.5109 47.4653 30.0213C46.5948 28.5124 46.1596 26.8198 46.1596 24.9433C46.1596 23.0476 46.5948 21.3452 47.4653 19.8363C48.3552 18.3274 49.5449 17.1474 51.0344 16.2963C52.5433 15.4451 54.207 15.0195 56.0254 15.0195C57.8051 15.0195 59.4107 15.4257 60.8422 16.2382C62.2931 17.0314 63.4441 18.163 64.2952 19.6332L61.9739 20.7939C61.3355 19.7299 60.494 18.8981 59.4494 18.2984C58.4048 17.6987 57.2731 17.3989 56.0544 17.3989C54.7776 17.3989 53.5879 17.7181 52.4853 18.3565C51.402 18.9755 50.5315 19.8557 49.8738 20.997C49.216 22.1384 48.8872 23.4345 48.8872 24.8853C48.8872 26.2975 49.2064 27.5742 49.8447 28.7156C50.5025 29.8569 51.373 30.7468 52.4563 31.3851C53.5396 32.0235 54.7196 32.3427 55.9964 32.3427C57.2731 32.3427 58.4435 32.0235 59.5074 31.3851C60.5907 30.7468 61.4419 29.8666 62.0609 28.7446L64.4403 29.8472C63.6085 31.3948 62.4478 32.6038 60.9583 33.4744C59.4881 34.3255 57.8341 34.7511 55.9964 34.7511ZM73.9609 34.7511C72.5874 34.7511 71.3397 34.4222 70.2177 33.7645C69.0957 33.0875 68.2058 32.1686 67.5481 31.0079C66.9097 29.8472 66.5905 28.5705 66.5905 27.1777C66.5905 25.6107 66.9 24.2469 67.5191 23.0862C68.1575 21.9062 69.0183 21.0067 70.1016 20.3877C71.2042 19.7686 72.4423 19.4591 73.8158 19.4591C75.2086 19.4591 76.4853 19.817 77.646 20.5327C78.8067 21.2485 79.6192 22.2061 80.0835 23.4054V19.7493H82.8401V34.4609H80.1125V30.7177C79.6676 31.9171 78.8647 32.894 77.7041 33.6485C76.5627 34.3836 75.315 34.7511 73.9609 34.7511ZM69.3181 27.1777C69.3181 28.1642 69.5599 29.0638 70.0436 29.8762C70.5272 30.6694 71.1752 31.2981 71.9877 31.7624C72.8002 32.2073 73.661 32.4297 74.5702 32.4297C75.5181 32.4297 76.408 32.2073 77.2398 31.7624C78.0716 31.3174 78.739 30.6984 79.242 29.9053C79.7449 29.0928 79.9964 28.1836 79.9964 27.1777C79.9964 26.075 79.7449 25.1174 79.242 24.305C78.739 23.4731 78.0716 22.8444 77.2398 22.4189C76.4273 21.9739 75.5375 21.7515 74.5702 21.7515C73.603 21.7515 72.7228 21.9643 71.9297 22.3898C71.1365 22.7961 70.4982 23.4151 70.0145 24.2469C69.5503 25.0594 69.3181 26.0363 69.3181 27.1777ZM84.9812 20.0685H87.7088V23.6666C88.1344 22.4866 88.9179 21.5193 90.0592 20.7649C91.2005 20.0104 92.4386 19.6332 93.7734 19.6332C95.1275 19.6332 96.3559 19.9717 97.4586 20.6488C98.5806 21.3065 99.4607 22.2061 100.099 23.3474C100.737 24.4887 101.057 25.7461 101.057 27.1196C101.057 28.6672 100.747 30.0213 100.128 31.182C99.5091 32.3233 98.6483 33.2035 97.5456 33.8226C96.4623 34.4416 95.2436 34.7511 93.8895 34.7511C92.4966 34.7511 91.2296 34.4029 90.0882 33.7065C88.9662 32.9907 88.1731 32.0428 87.7088 30.8628V39.713H84.9812V20.0685ZM87.8249 27.1196C87.8249 28.2223 88.0667 29.1798 88.5503 29.9923C89.0339 30.7854 89.682 31.3948 90.4945 31.8204C91.3069 32.246 92.1871 32.4588 93.135 32.4588C94.0829 32.4588 94.9534 32.2556 95.7466 31.8494C96.5397 31.4432 97.1684 30.8338 97.6327 30.0213C98.0969 29.2088 98.3291 28.2416 98.3291 27.1196C98.3291 26.133 98.0873 25.2529 97.6036 24.4791C97.1394 23.6859 96.501 23.0669 95.6885 22.622C94.8954 22.177 94.0442 21.9546 93.135 21.9546C92.2065 21.9546 91.336 22.177 90.5235 22.622C89.711 23.0669 89.0533 23.6859 88.5503 24.4791C88.0667 25.2529 87.8249 26.133 87.8249 27.1196ZM103.406 19.7493H106.133V34.4609H103.406V19.7493ZM103.174 16.4704C103.174 16.0835 103.328 15.7739 103.638 15.5418C103.967 15.3097 104.354 15.1936 104.799 15.1936C105.224 15.1936 105.592 15.3193 105.901 15.5708C106.23 15.803 106.394 16.1028 106.394 16.4704C106.394 16.8379 106.23 17.1474 105.901 17.3989C105.592 17.631 105.224 17.7471 104.799 17.7471C104.354 17.7471 103.967 17.631 103.638 17.3989C103.328 17.1474 103.174 16.8379 103.174 16.4704ZM119.353 34.0257C118.502 34.3932 117.583 34.577 116.597 34.577C115.591 34.577 114.653 34.3739 113.782 33.9676C112.931 33.5421 112.234 32.9134 111.693 32.0815C111.17 31.2497 110.909 30.2244 110.909 29.0057V22.0416H108.501V19.6332C109.217 19.6332 109.739 19.5268 110.068 19.314C110.416 19.1012 110.639 18.8014 110.735 18.4145C110.851 18.0276 110.909 17.486 110.909 16.7895V15.3097H113.637L113.666 19.6332H118.251V22.0416H113.637V28.7156C113.637 29.7795 113.956 30.6113 114.594 31.211C115.233 31.7914 116.026 32.0815 116.974 32.0815C117.574 32.0815 118.193 31.9461 118.831 31.6753L119.353 34.0257ZM127.404 34.7511C126.031 34.7511 124.783 34.4222 123.661 33.7645C122.539 33.0875 121.649 32.1686 120.992 31.0079C120.353 29.8472 120.034 28.5705 120.034 27.1777C120.034 25.6107 120.344 24.2469 120.963 23.0862C121.601 21.9062 122.462 21.0067 123.545 20.3877C124.648 19.7686 125.886 19.4591 127.259 19.4591C128.652 19.4591 129.929 19.817 131.09 20.5327C132.25 21.2485 133.063 22.2061 133.527 23.4054V19.7493H136.284V34.4609H133.556V30.7177C133.111 31.9171 132.308 32.894 131.148 33.6485C130.006 34.3836 128.759 34.7511 127.404 34.7511ZM122.762 27.1777C122.762 28.1642 123.003 29.0638 123.487 29.8762C123.971 30.6694 124.619 31.2981 125.431 31.7624C126.244 32.2073 127.105 32.4297 128.014 32.4297C128.962 32.4297 129.852 32.2073 130.683 31.7624C131.515 31.3174 132.183 30.6984 132.686 29.9053C133.188 29.0928 133.44 28.1836 133.44 27.1777C133.44 26.075 133.188 25.1174 132.686 24.305C132.183 23.4731 131.515 22.8444 130.683 22.4189C129.871 21.9739 128.981 21.7515 128.014 21.7515C127.047 21.7515 126.166 21.9643 125.373 22.3898C124.58 22.7961 123.942 23.4151 123.458 24.2469C122.994 25.0594 122.762 26.0363 122.762 27.1777ZM138.425 15.3097H141.152V34.4609H138.425V15.3097ZM160.39 34.7511C158.591 34.7511 156.937 34.3352 155.428 33.5034C153.938 32.6716 152.749 31.5109 151.859 30.0213C150.988 28.5124 150.553 26.8198 150.553 24.9433C150.553 23.0476 150.988 21.3452 151.859 19.8363C152.749 18.3274 153.938 17.1474 155.428 16.2963C156.937 15.4451 158.6 15.0195 160.419 15.0195C162.199 15.0195 163.804 15.4257 165.236 16.2382C166.686 17.0314 167.837 18.163 168.689 19.6332L166.367 20.7939C165.729 19.7299 164.887 18.8981 163.843 18.2984C162.798 17.6987 161.667 17.3989 160.448 17.3989C159.171 17.3989 157.981 17.7181 156.879 18.3565C155.795 18.9755 154.925 19.8557 154.267 20.997C153.609 22.1384 153.281 23.4345 153.281 24.8853C153.281 26.2975 153.6 27.5742 154.238 28.7156C154.896 29.8569 155.766 30.7468 156.85 31.3851C157.933 32.0235 159.113 32.3427 160.39 32.3427C161.667 32.3427 162.837 32.0235 163.901 31.3851C164.984 30.7468 165.835 29.8666 166.454 28.7446L168.834 29.8472C168.002 31.3948 166.841 32.6038 165.352 33.4744C163.881 34.3255 162.228 34.7511 160.39 34.7511ZM178.993 34.7511C177.542 34.7511 176.197 34.4222 174.959 33.7645C173.741 33.1068 172.773 32.1976 172.058 31.0369C171.342 29.8569 170.984 28.5511 170.984 27.1196C170.984 25.5914 171.332 24.2469 172.029 23.0862C172.744 21.9256 173.702 21.0357 174.901 20.4167C176.12 19.7783 177.484 19.4591 178.993 19.4591C180.502 19.4591 181.865 19.7783 183.084 20.4167C184.322 21.0357 185.289 21.9256 185.986 23.0862C186.702 24.2469 187.059 25.5914 187.059 27.1196C187.059 28.5705 186.711 29.8762 186.015 31.0369C185.318 32.1976 184.351 33.1068 183.113 33.7645C181.894 34.4222 180.521 34.7511 178.993 34.7511ZM173.712 27.1777C173.712 28.1642 173.953 29.0638 174.437 29.8762C174.921 30.6694 175.559 31.2981 176.352 31.7624C177.165 32.2266 178.035 32.4588 178.964 32.4588C179.912 32.4588 180.792 32.2363 181.604 31.7914C182.436 31.3464 183.094 30.7274 183.577 29.9343C184.08 29.1218 184.332 28.2029 184.332 27.1777C184.332 26.1137 184.09 25.1755 183.606 24.363C183.142 23.5312 182.504 22.8928 181.691 22.4479C180.879 21.9836 179.979 21.7515 178.993 21.7515C178.025 21.7515 177.136 21.9739 176.323 22.4189C175.53 22.8444 174.892 23.4731 174.408 24.305C173.944 25.1174 173.712 26.075 173.712 27.1777ZM189.205 19.7493H191.932V23.4054C192.184 22.2834 192.812 21.3452 193.818 20.5908C194.824 19.8363 195.917 19.4591 197.097 19.4591C198.432 19.4591 199.583 19.817 200.55 20.5327C201.518 21.2485 202.195 22.2448 202.581 23.5215C202.968 22.3028 203.665 21.3259 204.671 20.5908C205.677 19.8363 206.799 19.4591 208.037 19.4591C209.971 19.4591 211.499 20.0878 212.621 21.3452C213.763 22.5833 214.333 24.3146 214.333 26.5393V34.4609H211.606V26.5683C211.606 25.0788 211.229 23.9084 210.474 23.0572C209.739 22.1867 208.714 21.7515 207.398 21.7515C206.122 21.7515 205.106 22.1867 204.352 23.0572C203.597 23.9277 203.22 25.1078 203.22 26.5973V34.4609H200.492V26.5683C200.492 25.0981 200.115 23.9277 199.361 23.0572C198.626 22.1867 197.62 21.7515 196.343 21.7515C195.53 21.7515 194.795 21.9739 194.138 22.4189C193.48 22.8444 192.967 23.4248 192.6 24.1599C192.251 24.895 192.068 25.6881 192.048 26.5393L192.019 34.4609H189.205V19.7493ZM216.493 20.0685H219.221V23.6666C219.646 22.4866 220.43 21.5193 221.571 20.7649C222.712 20.0104 223.951 19.6332 225.285 19.6332C226.639 19.6332 227.868 19.9717 228.97 20.6488C230.092 21.3065 230.973 22.2061 231.611 23.3474C232.249 24.4887 232.569 25.7461 232.569 27.1196C232.569 28.6672 232.259 30.0213 231.64 31.182C231.021 32.3233 230.16 33.2035 229.058 33.8226C227.974 34.4416 226.755 34.7511 225.401 34.7511C224.009 34.7511 222.741 34.4029 221.6 33.7065C220.478 32.9907 219.685 32.0428 219.221 30.8628V39.713H216.493V20.0685ZM219.337 27.1196C219.337 28.2223 219.579 29.1798 220.062 29.9923C220.546 30.7854 221.194 31.3948 222.006 31.8204C222.819 32.246 223.699 32.4588 224.647 32.4588C225.595 32.4588 226.465 32.2556 227.258 31.8494C228.052 31.4432 228.68 30.8338 229.145 30.0213C229.609 29.2088 229.841 28.2416 229.841 27.1196C229.841 26.133 229.599 25.2529 229.116 24.4791C228.651 23.6859 228.013 23.0669 227.2 22.622C226.407 22.177 225.556 21.9546 224.647 21.9546C223.718 21.9546 222.848 22.177 222.035 22.622C221.223 23.0669 220.565 23.6859 220.062 24.4791C219.579 25.2529 219.337 26.133 219.337 27.1196ZM242.056 34.7511C240.682 34.7511 239.435 34.4222 238.313 33.7645C237.191 33.0875 236.301 32.1686 235.643 31.0079C235.005 29.8472 234.685 28.5705 234.685 27.1777C234.685 25.6107 234.995 24.2469 235.614 23.0862C236.252 21.9062 237.113 21.0067 238.197 20.3877C239.299 19.7686 240.537 19.4591 241.911 19.4591C243.304 19.4591 244.58 19.817 245.741 20.5327C246.902 21.2485 247.714 22.2061 248.178 23.4054V19.7493H250.935V34.4609H248.207V30.7177C247.762 31.9171 246.96 32.894 245.799 33.6485C244.658 34.3836 243.41 34.7511 242.056 34.7511ZM237.413 27.1777C237.413 28.1642 237.655 29.0638 238.138 29.8762C238.622 30.6694 239.27 31.2981 240.083 31.7624C240.895 32.2073 241.756 32.4297 242.665 32.4297C243.613 32.4297 244.503 32.2073 245.335 31.7624C246.167 31.3174 246.834 30.6984 247.337 29.9053C247.84 29.0928 248.091 28.1836 248.091 27.1777C248.091 26.075 247.84 25.1174 247.337 24.305C246.834 23.4731 246.167 22.8444 245.335 22.4189C244.522 21.9739 243.632 21.7515 242.665 21.7515C241.698 21.7515 240.818 21.9643 240.025 22.3898C239.231 22.7961 238.593 23.4151 238.109 24.2469C237.645 25.0594 237.413 26.0363 237.413 27.1777ZM259.489 34.7511C257.632 34.7511 256.104 34.2965 254.904 33.3873C253.705 32.4588 253.096 31.1917 253.076 29.5861H255.601C255.678 30.6887 256.065 31.4819 256.761 31.9655C257.458 32.4491 258.348 32.6909 259.431 32.6909C260.224 32.6909 260.92 32.4781 261.52 32.0525C262.12 31.6269 262.42 31.0756 262.42 30.3985C262.42 29.7021 262.159 29.1895 261.636 28.8606C261.114 28.5124 260.253 28.2416 259.054 28.0482C257.042 27.758 255.543 27.3131 254.556 26.7134C253.589 26.0944 253.105 25.0981 253.105 23.7246C253.105 22.4479 253.627 21.4226 254.672 20.6488C255.717 19.8557 257.081 19.4591 258.764 19.4591C260.601 19.4591 262.081 19.8944 263.203 20.7649C264.325 21.616 264.934 22.8541 265.031 24.4791H262.507C262.429 23.5699 262.062 22.8541 261.404 22.3318C260.746 21.7902 259.866 21.5193 258.764 21.5193C257.893 21.5193 257.177 21.7418 256.616 22.1867C256.055 22.6316 255.775 23.183 255.775 23.8407C255.775 24.5371 256.036 25.0788 256.558 25.4656C257.1 25.8525 257.999 26.1524 259.257 26.3652C260.708 26.6167 261.83 26.8972 262.623 27.2067C263.435 27.4968 264.045 27.9128 264.451 28.4544C264.857 28.9767 265.06 29.6925 265.06 30.6017C265.06 31.8784 264.548 32.894 263.522 33.6485C262.497 34.3836 261.153 34.7511 259.489 34.7511ZM273.657 34.7511C271.8 34.7511 270.272 34.2965 269.073 33.3873C267.873 32.4588 267.264 31.1917 267.245 29.5861H269.769C269.847 30.6887 270.233 31.4819 270.93 31.9655C271.626 32.4491 272.516 32.6909 273.599 32.6909C274.393 32.6909 275.089 32.4781 275.689 32.0525C276.288 31.6269 276.588 31.0756 276.588 30.3985C276.588 29.7021 276.327 29.1895 275.805 28.8606C275.282 28.5124 274.422 28.2416 273.222 28.0482C271.21 27.758 269.711 27.3131 268.725 26.7134C267.757 26.0944 267.274 25.0981 267.274 23.7246C267.274 22.4479 267.796 21.4226 268.841 20.6488C269.885 19.8557 271.249 19.4591 272.932 19.4591C274.77 19.4591 276.25 19.8944 277.372 20.7649C278.494 21.616 279.103 22.8541 279.2 24.4791H276.675C276.598 23.5699 276.23 22.8541 275.573 22.3318C274.915 21.7902 274.035 21.5193 272.932 21.5193C272.061 21.5193 271.346 21.7418 270.785 22.1867C270.224 22.6316 269.943 23.183 269.943 23.8407C269.943 24.5371 270.204 25.0788 270.727 25.4656C271.268 25.8525 272.168 26.1524 273.425 26.3652C274.876 26.6167 275.998 26.8972 276.791 27.2067C277.604 27.4968 278.213 27.9128 278.619 28.4544C279.026 28.9767 279.229 29.6925 279.229 30.6017C279.229 31.8784 278.716 32.894 277.691 33.6485C276.666 34.3836 275.321 34.7511 273.657 34.7511Z" fill="#C020ED"/>
</svg>
